<?xml version="1.0" encoding="UTF-8" standalone="no"?>
<!-- Created with Inkscape (http://www.inkscape.org/) -->

<svg
   width="210mm"
   height="297mm"
   viewBox="0 0 210 297"
   version="1.1"
   id="svg1"
   sodipodi:docname="bottle.svg"
   inkscape:version="1.3.2 (091e20ef0f, 2023-11-25, custom)"
   inkscape:export-filename="healthContents.png"
   inkscape:export-xdpi="120.66689"
   inkscape:export-ydpi="120.66689"
   xmlns:inkscape="http://www.inkscape.org/namespaces/inkscape"
   xmlns:sodipodi="http://sodipodi.sourceforge.net/DTD/sodipodi-0.dtd"
   xmlns="http://www.w3.org/2000/svg"
   xmlns:svg="http://www.w3.org/2000/svg">
  <sodipodi:namedview
     id="namedview1"
     pagecolor="#505050"
     bordercolor="#ffffff"
     borderopacity="1"
     inkscape:showpageshadow="0"
     inkscape:pageopacity="0"
     inkscape:pagecheckerboard="1"
     inkscape:deskcolor="#505050"
     inkscape:document-units="mm"
     inkscape:zoom="1.8615327"
     inkscape:cx="407.99712"
     inkscape:cy="706.94432"
     inkscape:window-width="1909"
     inkscape:window-height="2109"
     inkscape:window-x="3845"
     inkscape:window-y="40"
     inkscape:window-maximized="1"
     inkscape:current-layer="svg1" />
  <defs
     id="defs1">
    <clipPath
       clipPathUnits="userSpaceOnUse"
       id="clipPath15">
      <g
         inkscape:label="Clip"
         id="use15" />
    </clipPath>
  </defs>
  <g
     inkscape:label="Fill"
     inkscape:groupmode="layer"
     id="g13">
    <path
       id="path11"
       style="fill:#c42430;fill-opacity:1;stroke:#ffffff;stroke-width:0;stroke-dasharray:none"
       transform="matrix(-1,0,0,1,210,0)"
       d="m 105,123.37868 c 0,0 -13.506942,-0.19883 -17.710893,-0.18553 -4.203951,0.0133 -5.494769,0.36822 -5.608677,3.71222 -0.113908,3.344 0.331425,5.67603 7.151201,5.74863 6.819772,0.0726 5.03453,7.83807 4.587565,11.08456 -1.283607,9.32334 -11.581303,21.2966 -19.789182,26.69616 -17.900701,11.78204 -19.766303,28.36286 -18.37081,34.73802 1.641585,7.49941 3.029303,11.82361 3.029303,11.82361 2.638338,10.51737 14.860054,9.9982 46.711493,9.89481 31.85144,-0.10339 44.07315,0.62256 48.29377,-16.04075 2.84252,-12.05283 0.97692,-28.63365 -16.92378,-40.41569 -8.20788,-5.39956 -18.50558,-17.37282 -19.78919,-26.69616 -0.44696,-3.24649 -2.2322,-11.01195 4.58757,-11.08456 6.81978,-0.0726 7.26511,-2.40463 7.1512,-5.74863 -0.11391,-3.344 -1.40473,-3.6989 -5.60868,-3.71222"
       sodipodi:nodetypes="csssscsccccsssc" />
    <path
       id="path16"
       style="fill:#891e2b;fill-opacity:1;stroke:#ffffff;stroke-width:0;stroke-dasharray:none"
       d="m 144.54332,206.14276 c -1.29031,5.89463 -2.38107,9.29351 -2.38107,9.29351 -2.07377,8.26678 -11.68019,7.85871 -36.71582,7.77744 -25.035632,-0.0813 -34.64205,0.48934 -37.95951,-12.60823 -2.234256,-9.47368 -3.67917,-31.54065 37.95951,-31.76724 38.47916,1.32917 40.19376,22.29356 39.09689,27.30452 z"
       sodipodi:nodetypes="sccccs" />
  </g>
  <g
     inkscape:label="Bottle"
     inkscape:groupmode="layer"
     id="layer1"
     style="display:inline">
    <g
       id="g3">
      <path
         style="fill:none;fill-opacity:1;stroke:#ffffff;stroke-width:4.99999;stroke-dasharray:none"
         d="m 58.153246,216.52808 c 2.773599,10.98564 15.861571,10.59913 46.926464,10.59913"
         id="path2"
         sodipodi:nodetypes="cc" />
      <path
         style="fill:none;fill-opacity:1;stroke:#ffffff;stroke-width:4.99999;stroke-dasharray:none"
         d="m 58.423768,217.46462 c 0,0 -1.522979,-4.79247 -3.164564,-12.29188 -1.395493,-6.37516 0.470109,-22.95598 18.37081,-34.73802 8.207879,-5.39956 18.505575,-17.37282 19.789182,-26.69616 0.446965,-3.24649 2.232207,-11.01195 -4.587565,-11.08456 -6.819776,-0.0726 -7.265109,-2.40463 -7.151201,-5.74863 0.113908,-3.344 1.404726,-3.6989 5.608677,-3.71222 C 91.493058,123.17985 105,123.07027 105,123.07027"
         id="path3"
         sodipodi:nodetypes="cscssssc" />
    </g>
    <g
       id="g5"
       transform="matrix(-1,0,0,1,210,0)">
      <path
         style="fill:none;fill-opacity:1;stroke:#ffffff;stroke-width:4.99999;stroke-dasharray:none"
         d="m 58.153246,216.52808 c 2.773599,10.98564 15.861571,10.59913 46.926464,10.59913"
         id="path4"
         sodipodi:nodetypes="cc" />
      <path
         style="fill:none;fill-opacity:1;stroke:#ffffff;stroke-width:4.99999;stroke-dasharray:none"
         d="m 58.423768,217.46462 c 0,0 -1.522979,-4.79247 -3.164564,-12.29188 -1.395493,-6.37516 0.470109,-22.95598 18.37081,-34.73802 8.207879,-5.39956 18.505575,-17.37282 19.789182,-26.69616 0.446965,-3.24649 2.232207,-11.01195 -4.587565,-11.08456 -6.819776,-0.0726 -7.265109,-2.40463 -7.151201,-5.74863 0.113908,-3.344 1.404726,-3.6989 5.608677,-3.71222 4.203951,-0.0133 18.657253,-0.11529 18.657253,-0.11529"
         id="path5"
         sodipodi:nodetypes="cscssssc" />
    </g>
    <path
       style="fill:none;fill-opacity:1;stroke:#ffffff;stroke-width:4.99999;stroke-linecap:round;stroke-dasharray:none"
       d="m 77.106501,181.67156 c -5.219385,4.30862 -8.222987,6.04835 -11.342899,16.26712"
       id="path6" />
    <path
       style="fill:none;fill-opacity:1;stroke:#ffffff;stroke-width:2.6754;stroke-linecap:round;stroke-dasharray:none"
       d="m 80.849683,187.58859 c -2.792793,2.30546 -4.399963,3.23636 -6.069368,8.70423"
       id="path7" />
  </g>
</svg>
